<?xml version="1.0" encoding="UTF-8"?>
<!--Generator: Apple Native CoreSVG 341-->
<!DOCTYPE svg
PUBLIC "-//W3C//DTD SVG 1.1//EN"
       "http://www.w3.org/Graphics/SVG/1.1/DTD/svg11.dtd">
<svg version="1.1" xmlns="http://www.w3.org/2000/svg" xmlns:xlink="http://www.w3.org/1999/xlink" viewBox="0 0 409.805 326.133">
 <g>
  <rect height="326.133" opacity="0" width="409.805" x="0" y="0"/>
  <path d="M106.406 234.727L128.438 234.727C137.344 234.727 144.375 229.336 146.367 220.781L150.703 200.977C151.523 200.742 152.461 200.391 153.281 200.039L170.742 210.586C178.125 215.039 186.914 214.102 193.125 207.891L208.477 192.422C214.922 185.977 215.742 177.305 211.055 169.922L200.508 153.047C200.859 152.109 201.211 151.289 201.562 150.352L221.016 145.664C229.453 143.555 234.961 136.641 234.961 127.734L234.961 106.992C234.961 97.9688 229.57 91.0547 221.016 88.9453L201.562 84.2578C201.211 83.3203 200.859 82.5 200.508 81.5625L211.055 64.6875C215.742 57.1875 214.922 48.6328 208.477 42.1875L193.125 26.8359C186.914 20.625 178.125 19.5703 170.742 24.0234L153.281 34.5703C152.344 34.2188 151.523 33.8672 150.586 33.6328L146.367 13.8281C144.492 5.27344 137.344 0 128.438 0L106.406 0C97.5 0 90.5859 5.27344 88.5938 13.8281L84.1406 33.6328C83.2031 33.8672 82.3828 34.2188 81.5625 34.5703L64.2188 24.0234C56.7188 19.5703 48.0469 20.625 41.8359 26.8359L26.4844 42.1875C19.9219 48.6328 19.2188 57.3047 23.7891 64.6875L34.4531 81.5625C34.1016 82.5 33.75 83.3203 33.3984 84.2578L13.9453 88.9453C5.27344 91.0547 0 97.9688 0 106.992L0 127.734C0 136.641 5.27344 143.555 13.9453 145.664L33.3984 150.352C33.75 151.289 34.1016 152.109 34.4531 153.047L23.7891 169.922C19.1016 177.305 19.9219 185.977 26.4844 192.422L41.8359 207.891C48.0469 214.102 56.6016 215.039 64.1016 210.586L81.6797 200.039C82.3828 200.391 83.3203 200.742 84.1406 200.977L88.5938 220.781C90.5859 229.336 97.5 234.727 106.406 234.727ZM108.984 216.445C106.875 216.445 105.703 215.391 105.234 213.281L98.9062 186.914C92.1094 185.273 86.0156 182.227 80.8594 179.531L57.8906 193.594C56.0156 194.766 54.4922 194.648 52.9688 193.125L40.8984 181.289C39.375 179.883 39.375 178.477 40.5469 176.484L54.4922 153.633C52.6172 149.062 49.1016 142.734 47.3438 135.586L21.3281 129.375C19.1016 128.906 18.1641 127.734 18.1641 125.625L18.1641 108.984C18.1641 106.875 19.1016 105.703 21.3281 105.234L47.3438 99.0234C49.1016 91.875 52.6172 85.5469 54.4922 80.9766L40.5469 58.125C39.375 56.25 39.375 54.7266 40.8984 53.3203L52.9688 41.4844C54.4922 40.0781 56.0156 39.8438 57.8906 41.0156L80.8594 55.0781C86.0156 52.3828 92.1094 49.3359 98.9062 47.6953L105.234 21.4453C105.703 19.2188 106.875 18.2812 108.984 18.2812L125.977 18.2812C128.086 18.2812 129.258 19.2188 129.727 21.4453L136.055 47.6953C142.734 49.3359 148.945 52.3828 153.984 55.0781L176.953 41.0156C178.945 39.8438 180.469 40.0781 181.992 41.4844L193.945 53.3203C195.586 54.7266 195.586 56.25 194.414 58.125L180.352 80.9766C182.344 85.5469 185.859 91.875 187.5 99.0234L213.633 105.234C215.742 105.703 216.797 106.875 216.797 108.984L216.797 125.625C216.797 127.734 215.742 128.906 213.633 129.375L187.5 135.586C185.859 142.734 182.344 149.062 180.352 153.633L194.414 176.484C195.586 178.477 195.586 179.883 193.945 181.289L181.992 193.125C180.469 194.648 178.945 194.766 176.953 193.594L153.984 179.531C148.945 182.227 142.734 185.273 136.055 186.914L129.727 213.281C129.258 215.391 128.086 216.445 125.977 216.445ZM302.461 326.016L319.453 326.016C327.773 326.016 334.336 321.328 335.742 313.945L338.789 297.891C339.727 297.656 340.547 297.305 341.484 296.953L354.961 305.625C361.523 309.727 369.258 308.789 375.117 302.812L387.07 290.742C392.93 284.766 394.102 277.031 389.648 270.469L380.977 257.344C381.328 256.406 381.68 255.703 381.914 254.766L397.734 251.484C405.117 249.961 409.805 243.516 409.805 235.312L409.805 218.555C409.805 210.352 405.117 203.906 397.734 202.383L381.914 199.219C381.68 198.281 381.328 197.461 380.977 196.641L389.648 183.398C394.102 176.836 392.93 169.102 387.07 163.125L375.117 151.055C369.258 145.195 361.523 144.258 354.961 148.359L341.484 156.914C340.547 156.562 339.727 156.328 338.789 155.977L335.742 140.039C334.336 132.539 327.773 127.969 319.453 127.969L302.461 127.969C294.141 127.969 287.578 132.539 286.172 140.039L283.125 155.977C282.188 156.328 281.367 156.562 280.547 156.914L266.953 148.359C260.391 144.258 252.656 145.195 246.797 151.055L234.844 163.125C228.984 169.102 227.93 176.836 232.266 183.398L240.938 196.641C240.586 197.461 240.234 198.281 240 199.219L224.18 202.383C216.797 203.906 212.109 210.352 212.109 218.555L212.109 235.312C212.109 243.516 216.797 249.961 224.18 251.484L240 254.766C240.234 255.703 240.586 256.406 240.938 257.344L232.266 270.469C227.93 277.031 228.984 284.766 234.844 290.742L246.797 302.812C252.656 308.789 260.391 309.727 266.953 305.625L280.547 296.953C281.367 297.305 282.188 297.656 283.125 297.891L286.172 313.945C287.578 321.328 294.141 326.016 302.461 326.016ZM305.742 308.555C303.633 308.555 302.461 307.5 301.992 305.625L296.836 283.945C291.094 282.656 285.82 280.43 280.547 277.031L261.68 288.984C260.156 289.922 258.398 289.805 256.992 288.398L249.492 280.664C247.852 279.141 247.734 277.617 248.672 276.094L260.391 257.578C258.867 253.828 255.352 247.734 253.828 240.938L232.266 236.016C230.508 235.781 229.453 234.258 229.453 232.383L229.453 221.602C229.453 219.609 230.508 218.203 232.266 217.852L253.828 212.93C255.352 206.25 258.867 200.156 260.391 196.406L248.672 177.891C247.734 176.367 247.852 174.727 249.492 173.203L256.992 165.586C258.398 164.18 260.156 163.945 261.68 165L280.547 176.836C285.82 173.438 291.094 171.328 296.836 169.922L301.992 148.359C302.461 146.484 303.633 145.43 305.742 145.43L316.172 145.43C318.281 145.43 319.453 146.484 319.922 148.359L325.078 169.922C330.82 171.328 336.094 173.438 341.367 176.836L360.234 165C361.875 163.945 363.516 164.18 364.922 165.586L372.422 173.203C374.062 174.727 374.18 176.367 373.242 177.891L361.523 196.406C363.047 200.156 366.68 206.25 368.086 212.93L389.648 217.852C391.406 218.203 392.578 219.609 392.578 221.602L392.578 232.383C392.578 234.258 391.406 235.781 389.648 236.016L368.086 240.938C366.68 247.734 363.047 253.828 361.523 257.578L373.242 276.094C374.18 277.617 374.062 279.141 372.422 280.664L364.922 288.398C363.516 289.805 361.875 289.922 360.234 288.984L341.367 277.031C336.094 280.43 330.82 282.656 325.078 283.945L319.922 305.625C319.453 307.5 318.281 308.555 316.172 308.555ZM117.422 162.891C142.617 162.891 163.008 142.5 163.008 117.305C163.008 92.2266 142.617 71.7188 117.422 71.7188C92.3438 71.7188 71.8359 92.2266 71.8359 117.305C71.8359 142.5 92.3438 162.891 117.422 162.891ZM117.422 144.141C102.539 144.141 90.5859 132.188 90.5859 117.305C90.5859 102.422 102.539 90.4688 117.422 90.4688C132.305 90.4688 144.258 102.422 144.258 117.305C144.258 132.188 132.305 144.141 117.422 144.141ZM310.898 261.68C330 261.68 345.586 246.094 345.586 226.992C345.586 207.891 330 192.305 310.898 192.305C291.797 192.305 276.211 207.891 276.211 226.992C276.211 246.094 291.797 261.68 310.898 261.68ZM310.898 244.922C300.938 244.922 292.852 236.836 292.852 226.992C292.852 217.148 300.938 209.062 310.898 209.062C320.742 209.062 328.828 217.148 328.828 226.992C328.828 236.836 320.742 244.922 310.898 244.922Z" fill="#98989d"/>
 </g>
</svg>
