<?xml version="1.0" encoding="UTF-8"?>
<!--Generator: Apple Native CoreSVG 341-->
<!DOCTYPE svg
PUBLIC "-//W3C//DTD SVG 1.1//EN"
       "http://www.w3.org/Graphics/SVG/1.1/DTD/svg11.dtd">
<svg version="1.1" xmlns="http://www.w3.org/2000/svg" xmlns:xlink="http://www.w3.org/1999/xlink" viewBox="0 0 456.328 346.289">
 <g>
  <rect height="346.289" opacity="0" width="456.328" x="0" y="0"/>
  <path d="M380.158 159.212C374.242 158.002 368.125 157.383 361.875 157.383C360.551 157.383 359.232 157.411 357.948 157.584C350.371 92.5894 295.213 42.3047 228.164 42.3047C155.859 42.3047 97.3828 100.781 97.3828 173.086C97.3828 245.391 155.859 303.867 228.164 303.867C245.651 303.867 262.329 300.447 277.535 294.174C280.816 300.846 284.941 307.031 289.743 312.626C270.938 321.039 250.086 325.664 228.164 325.664C143.906 325.664 75.5859 257.344 75.5859 173.086C75.5859 88.8281 143.906 20.3906 228.164 20.3906C307.739 20.3906 373.203 81.4316 380.158 159.212Z" fill="#0091ff"/>
  <path d="M237.188 74.7656L237.188 179.297C237.188 184.453 233.203 188.438 228.047 188.438L147.07 188.438C141.914 188.438 138.047 184.453 138.047 179.297C138.047 174.258 141.914 170.273 147.07 170.273L219.023 170.273L219.023 74.7656C219.023 69.7266 223.125 65.7422 228.047 65.7422C233.203 65.7422 237.188 69.7266 237.188 74.7656Z" fill="#0091ff"/>
  <path d="M437.578 251.836C437.578 293.32 403.008 327.656 361.875 327.656C320.273 327.656 286.055 293.555 286.055 251.836C286.055 210.352 320.273 176.016 361.875 176.016C403.359 176.016 437.578 210.234 437.578 251.836ZM389.062 218.789L352.266 269.766L333.398 249.492C331.875 247.852 329.766 246.445 326.719 246.445C321.914 246.445 318.047 250.195 318.047 255.117C318.047 257.109 318.75 259.57 320.391 261.445L345.586 289.102C347.461 291.094 350.273 292.148 352.617 292.148C355.664 292.148 358.359 290.859 359.883 288.75L403.125 228.75C404.414 226.992 405.117 225.117 405.117 223.477C405.117 218.672 401.016 214.922 396.445 214.922C393.281 214.922 390.703 216.445 389.062 218.789Z" fill="#0091ff"/>
 </g>
</svg>
