<?xml version="1.0" encoding="UTF-8"?>
<!--Generator: Apple Native CoreSVG 341-->
<!DOCTYPE svg
PUBLIC "-//W3C//DTD SVG 1.1//EN"
       "http://www.w3.org/Graphics/SVG/1.1/DTD/svg11.dtd">
<svg version="1.1" xmlns="http://www.w3.org/2000/svg" xmlns:xlink="http://www.w3.org/1999/xlink" viewBox="0 0 287.578 287.461">
 <g>
  <rect height="287.461" opacity="0" width="287.578" x="0" y="0"/>
  <path d="M131.719 221.367C131.719 257.812 102.305 287.227 65.8594 287.227C29.4141 287.227 0 257.812 0 221.367C0 185.039 29.4141 155.508 65.8594 155.508C102.305 155.508 131.719 185.039 131.719 221.367ZM287.578 221.367C287.578 257.812 258.047 287.227 221.719 287.227C185.273 287.227 155.859 257.812 155.859 221.367C155.859 185.039 185.273 155.508 221.719 155.508C258.047 155.508 287.578 185.039 287.578 221.367ZM20.1562 221.367C20.1562 246.68 40.5469 267.07 65.8594 267.07C91.1719 267.07 111.562 246.68 111.562 221.367C111.562 196.055 91.1719 175.664 65.8594 175.664C40.5469 175.664 20.1562 196.055 20.1562 221.367ZM176.016 221.367C176.016 246.68 196.406 267.07 221.719 267.07C246.914 267.07 267.305 246.68 267.305 221.367C267.305 196.055 246.914 175.664 221.719 175.664C196.406 175.664 176.016 196.055 176.016 221.367ZM287.578 65.8594C287.578 102.305 258.047 131.719 221.719 131.719C185.273 131.719 155.859 102.305 155.859 65.8594C155.859 29.5312 185.273 0 221.719 0C258.047 0 287.578 29.5312 287.578 65.8594ZM176.016 65.8594C176.016 91.1719 196.406 111.562 221.719 111.562C246.914 111.562 267.305 91.1719 267.305 65.8594C267.305 40.5469 246.914 20.1562 221.719 20.1562C196.406 20.1562 176.016 40.5469 176.016 65.8594Z" fill="#6b5dff"/>
  <path d="M131.719 65.8594C131.719 102.305 102.305 131.719 65.8594 131.719C29.4141 131.719 0 102.305 0 65.8594C0 29.5312 29.4141 0 65.8594 0C102.305 0 131.719 29.5312 131.719 65.8594ZM88.3594 39.8438L56.7188 83.7891L40.6641 66.4453C39.375 65.0391 37.2656 63.6328 34.5703 63.6328C30.1172 63.6328 26.7188 67.0312 26.7188 71.4844C26.7188 73.2422 27.4219 75.4688 28.8281 77.2266L50.7422 101.133C52.3828 102.891 54.8438 103.828 57.0703 103.828C59.6484 103.828 62.2266 102.539 63.3984 100.781L101.016 48.75C102.07 47.3438 102.773 45.4688 102.773 44.0625C102.773 39.7266 99.1406 36.3281 94.9219 36.3281C92.2266 36.3281 89.8828 37.7344 88.3594 39.8438Z" fill="#6b5dff"/>
 </g>
</svg>
